<svg width="50" height="50" viewBox="0 0 50 50" fill="none" xmlns="http://www.w3.org/2000/svg">
<path d="M43.75 11.9792V38.0208C43.75 41.1771 41.1771 43.75 38.0208 43.75H32.2917V29.1667H36.0625C36.5937 29.1667 37.0417 28.7708 37.1042 28.25L37.4896 25.125C37.5312 24.8333 37.4375 24.5312 37.2396 24.3125C37.0417 24.0833 36.7604 23.9583 36.4583 23.9583H32.2917V20.3125C32.2917 19.1667 33.2292 18.2292 34.375 18.2292H36.4583C37.0312 18.2292 37.5 17.7604 37.5 17.1875V13.6667C37.5 13.1354 37.0833 12.6875 36.5521 12.6354C36.4896 12.625 35.0208 12.5 33.1562 12.5C28.5729 12.5 26.0417 15.2292 26.0417 20.1771V23.9583H21.875C21.3021 23.9583 20.8333 24.4271 20.8333 25V28.125C20.8333 28.6979 21.3021 29.1667 21.875 29.1667H26.0417V43.75H11.9792C8.82292 43.75 6.25 41.1771 6.25 38.0208V11.9792C6.25 8.82292 8.82292 6.25 11.9792 6.25H38.0208C41.1771 6.25 43.75 8.82292 43.75 11.9792Z" fill="#38B6FF"/>
</svg>
