<svg width="50" height="50" viewBox="0 0 50 50" fill="none" xmlns="http://www.w3.org/2000/svg">
<path d="M25 4.16675C13.5104 4.16675 4.16667 13.5105 4.16667 25.0001C4.16667 28.323 4.96875 31.6042 6.48958 34.5522L4.26042 42.5313C4.01042 43.4376 4.27083 44.4063 4.92708 45.073C5.42708 45.5626 6.09375 45.8334 6.77083 45.8334C7.01042 45.8334 7.23958 45.8022 7.46875 45.7397L15.4479 43.5105C18.3958 45.0313 21.6875 45.8334 25 45.8334C36.4896 45.8334 45.8333 36.4897 45.8333 25.0001C45.8333 13.5105 36.4896 4.16675 25 4.16675ZM35.7917 32.6772C35.3333 33.9584 33.0833 35.198 32.0729 35.2918C31.0625 35.3855 30.1146 35.7501 25.4688 33.9168C19.8646 31.7084 16.3229 25.9688 16.0521 25.5938C15.7708 25.2292 13.8021 22.6147 13.8021 19.8959C13.8021 17.1876 15.2292 15.8542 15.7292 15.3022C16.2396 14.7501 16.8333 14.6147 17.1979 14.6147C17.5729 14.6147 17.9375 14.6147 18.2604 14.6251C18.6458 14.6459 19.0833 14.6667 19.5 15.5834C19.9896 16.6667 21.0625 19.3959 21.1979 19.6772C21.3333 19.948 21.4271 20.2709 21.2396 20.6355C21.0625 21.0001 20.9688 21.2292 20.6875 21.5522C20.4167 21.8751 20.1146 22.2709 19.8646 22.5209C19.5938 22.7917 19.3021 23.0938 19.625 23.6459C19.9479 24.198 21.0521 26.0001 22.6875 27.4584C24.7917 29.3334 26.5625 29.9167 27.1146 30.198C27.6667 30.4688 27.9896 30.4272 28.3125 30.0522C28.6354 29.6876 29.6875 28.448 30.0625 27.8959C30.4271 27.3438 30.7917 27.4376 31.3021 27.6251C31.8021 27.8022 34.5104 29.1355 35.0625 29.4167C35.6146 29.6876 35.9792 29.823 36.1146 30.0522C36.25 30.2813 36.25 31.3855 35.7917 32.6772Z" fill="#38B6FF"/>
</svg>
