<svg width="50" height="50" viewBox="0 0 50 50" fill="none" xmlns="http://www.w3.org/2000/svg">
<path d="M17.1875 5.20825C10.5823 5.20825 5.20833 10.5822 5.20833 17.1874V32.8124C5.20833 39.4176 10.5823 44.7916 17.1875 44.7916H32.8125C39.4177 44.7916 44.7917 39.4176 44.7917 32.8124V17.1874C44.7917 10.5822 39.4177 5.20825 32.8125 5.20825H17.1875ZM35.4167 12.4999C36.5677 12.4999 37.5 13.4322 37.5 14.5833C37.5 15.7333 36.5677 16.6666 35.4167 16.6666C34.2656 16.6666 33.3333 15.7333 33.3333 14.5833C33.3333 13.4322 34.2656 12.4999 35.4167 12.4999ZM25 14.5833C30.7437 14.5833 35.4167 19.2562 35.4167 24.9999C35.4167 30.7437 30.7437 35.4166 25 35.4166C19.2562 35.4166 14.5833 30.7437 14.5833 24.9999C14.5833 19.2562 19.2562 14.5833 25 14.5833ZM25 17.7083C24.0424 17.7083 23.0943 17.8969 22.2096 18.2633C21.3249 18.6297 20.5211 19.1668 19.844 19.8439C19.1669 20.521 18.6298 21.3249 18.2634 22.2095C17.8969 23.0942 17.7083 24.0424 17.7083 24.9999C17.7083 25.9575 17.8969 26.9057 18.2634 27.7903C18.6298 28.675 19.1669 29.4788 19.844 30.1559C20.5211 30.833 21.3249 31.3701 22.2096 31.7365C23.0943 32.103 24.0424 32.2916 25 32.2916C25.9576 32.2916 26.9057 32.103 27.7904 31.7365C28.6751 31.3701 29.4789 30.833 30.156 30.1559C30.8331 29.4788 31.3702 28.675 31.7366 27.7903C32.1031 26.9057 32.2917 25.9575 32.2917 24.9999C32.2917 24.0424 32.1031 23.0942 31.7366 22.2095C31.3702 21.3249 30.8331 20.521 30.156 19.8439C29.4789 19.1668 28.6751 18.6297 27.7904 18.2633C26.9057 17.8969 25.9576 17.7083 25 17.7083Z" fill="#38B6FF"/>
</svg>
