<svg width="50" height="50" viewBox="0 0 50 50" fill="none" xmlns="http://www.w3.org/2000/svg">
<path d="M38.0208 6.25H11.9792C8.82083 6.25 6.25 8.82083 6.25 11.9792V38.0208C6.25 41.1792 8.82083 43.75 11.9792 43.75H38.0208C41.1792 43.75 43.75 41.1792 43.75 38.0208V11.9792C43.75 8.82083 41.1792 6.25 38.0208 6.25ZM18.75 35.4167C18.75 35.9927 18.2844 36.4583 17.7083 36.4583H14.5833C14.0073 36.4583 13.5417 35.9927 13.5417 35.4167V21.875C13.5417 21.299 14.0073 20.8333 14.5833 20.8333H17.7083C18.2844 20.8333 18.75 21.299 18.75 21.875V35.4167ZM16.1458 18.75C14.7073 18.75 13.5417 17.5844 13.5417 16.1458C13.5417 14.7073 14.7073 13.5417 16.1458 13.5417C17.5844 13.5417 18.75 14.7073 18.75 16.1458C18.75 17.5844 17.5844 18.75 16.1458 18.75ZM36.4583 35.4167C36.4583 35.9927 35.9927 36.4583 35.4167 36.4583H32.2917C31.7156 36.4583 31.25 35.9927 31.25 35.4167V27.6042C31.25 26.1677 30.0823 25 28.6458 25C27.2094 25 26.0417 26.1677 26.0417 27.6042V35.4167C26.0417 35.9927 25.576 36.4583 25 36.4583H21.875C21.299 36.4583 20.8333 35.9927 20.8333 35.4167V21.875C20.8333 21.299 21.299 20.8333 21.875 20.8333H25C25.576 20.8333 26.0417 21.299 26.0417 21.875V22.4385C27.149 21.4437 28.6062 20.8333 30.2083 20.8333C33.6552 20.8333 36.4583 23.6365 36.4583 27.0833V35.4167Z" fill="#38B6FF"/>
</svg>
