<svg width="18" height="18" viewBox="0 0 18 18" fill="none" xmlns="http://www.w3.org/2000/svg">
<g clip-path="url(#clip0_102_9)">
<path d="M13.2 10.8C12 12 12 13.2 10.8 13.2C9.60001 13.2 8.39999 12 7.2 10.8C6.00001 9.59998 4.79999 8.39999 4.79999 7.2C4.79999 6.00001 5.99998 6.00001 7.2 4.79999C8.40002 3.59996 4.79999 0 3.6 0C2.40001 0 0 3.6 0 3.6C0 6.00001 2.46564 10.8656 4.79999 13.2C7.13434 15.5344 12 18 14.4 18C14.4 18 18 15.6 18 14.4C18 13.2 14.4 9.60001 13.2 10.8Z" fill="#38B6FF"/>
</g>
<defs>
<clipPath id="clip0_102_9">
<rect width="18" height="18" fill="white"/>
</clipPath>
</defs>
</svg>
