<svg width="50" height="50" viewBox="0 0 50 50" fill="none" xmlns="http://www.w3.org/2000/svg">
<path d="M25 4.16666C13.5104 4.16666 4.16666 13.5104 4.16666 25C4.16666 28.3229 4.96874 31.6042 6.48957 34.5521L4.26041 42.5312C4.01041 43.4375 4.27082 44.4062 4.92707 45.0729C5.42707 45.5625 6.09374 45.8333 6.77082 45.8333C7.01041 45.8333 7.23957 45.8021 7.46874 45.7396L15.4479 43.5104C18.3958 45.0312 21.6875 45.8333 25 45.8333C36.4896 45.8333 45.8333 36.4896 45.8333 25C45.8333 13.5104 36.4896 4.16666 25 4.16666ZM35.7917 32.6771C35.3333 33.9583 33.0833 35.1979 32.0729 35.2917C31.0625 35.3854 30.1146 35.75 25.4687 33.9167C19.8646 31.7083 16.3229 25.9687 16.0521 25.5937C15.7708 25.2292 13.8021 22.6146 13.8021 19.8958C13.8021 17.1875 15.2292 15.8542 15.7292 15.3021C16.2396 14.75 16.8333 14.6146 17.1979 14.6146C17.5729 14.6146 17.9375 14.6146 18.2604 14.625C18.6458 14.6458 19.0833 14.6667 19.5 15.5833C19.9896 16.6667 21.0625 19.3958 21.1979 19.6771C21.3333 19.9479 21.4271 20.2708 21.2396 20.6354C21.0625 21 20.9687 21.2292 20.6875 21.5521C20.4167 21.875 20.1146 22.2708 19.8646 22.5208C19.5937 22.7917 19.3021 23.0937 19.625 23.6458C19.9479 24.1979 21.0521 26 22.6875 27.4583C24.7917 29.3333 26.5625 29.9167 27.1146 30.1979C27.6667 30.4687 27.9896 30.4271 28.3125 30.0521C28.6354 29.6875 29.6875 28.4479 30.0625 27.8958C30.4271 27.3437 30.7917 27.4375 31.3021 27.625C31.8021 27.8021 34.5104 29.1354 35.0625 29.4167C35.6146 29.6875 35.9792 29.8229 36.1146 30.0521C36.25 30.2812 36.25 31.3854 35.7917 32.6771Z" fill="black"/>
</svg>
